<svg version="1.1" id="Layer_1" xmlns="http://www.w3.org/2000/svg" xmlns:xlink="http://www.w3.org/1999/xlink" x="0px" y="0px"
	 width="100%" viewBox="0 0 1522 626" enable-background="new 0 0 1522 626" xml:space="preserve">
<path fill="#FFFFFF" opacity="1.000000" stroke="none" 
	d="
M1044.000000,627.000000 
	C696.040344,627.000000 348.580750,627.000000 1.060553,627.000000 
	C1.060553,418.397949 1.060553,209.795898 1.060553,1.096915 
	C508.209778,1.096915 1015.419617,1.096915 1522.814697,1.096915 
	C1522.814697,209.666534 1522.814697,418.333252 1522.814697,627.000000 
	C1363.462280,627.000000 1203.981079,627.000000 1044.000000,627.000000 
M383.255005,341.748871 
	C367.551392,355.320587 351.847778,368.892303 335.916443,382.660828 
	C340.853729,388.368744 345.666046,393.932159 350.510040,399.532227 
	C351.689911,398.641449 352.518951,398.084351 353.271149,397.437836 
	C380.102722,374.377869 406.975800,351.365814 433.719360,328.204193 
	C440.722382,322.139130 447.319885,315.605835 454.414948,308.997620 
	C421.813751,280.320099 390.209900,252.519897 358.633881,224.744186 
	C353.480194,230.593796 348.695404,236.024658 343.859772,241.513245 
	C369.697632,264.271881 395.265442,286.792633 420.995239,309.456085 
	C408.274719,320.330231 396.028168,330.799164 383.255005,341.748871 
M198.261353,276.744659 
	C215.380722,262.048737 232.500107,247.352798 249.860641,232.449844 
	C244.874939,226.622513 240.155014,221.105835 235.304977,215.437073 
	C234.561111,215.989014 233.879379,216.431671 233.268768,216.957016 
	C208.093948,238.616974 182.887283,260.240173 157.776794,281.974487 
	C148.875565,289.678925 140.210388,297.656128 131.136078,305.778595 
	C163.810074,334.526062 195.426971,362.343475 227.150436,390.254639 
	C232.297226,384.426208 236.994370,379.106995 241.949738,373.495331 
	C216.082077,350.719360 190.551971,328.240631 164.815384,305.580078 
	C175.908554,296.037994 186.832794,286.641235 198.261353,276.744659 
M514.556702,500.385986 
	C514.556702,366.778534 514.556702,233.171051 514.556702,99.549637 
	C510.077423,99.549637 506.211578,99.549637 502.408020,99.549637 
	C502.408020,235.884125 502.408020,371.798004 502.408020,507.870026 
	C506.472870,507.870026 510.259033,507.870026 514.556641,507.870026 
	C514.556641,505.604828 514.556641,503.477814 514.556702,500.385986 
M277.517273,317.851471 
	C270.211548,346.578522 262.905823,375.305603 255.528488,404.314209 
	C263.071503,406.203094 270.063477,407.954010 277.314301,409.769745 
	C294.986389,340.301361 312.517639,271.386566 330.070099,202.388458 
	C322.370239,200.443314 315.354462,198.671005 308.265778,196.880264 
	C298.018494,237.294067 287.904480,277.182281 277.517273,317.851471 
M870.470520,390.160492 
	C867.505249,378.822510 864.539978,367.484528 861.609985,356.281281 
	C853.995300,356.281281 846.875488,356.281281 839.578308,356.281281 
	C836.471191,367.756409 833.403870,379.084808 830.336487,390.413208 
	C830.015259,390.324036 829.694031,390.234863 829.372803,390.145691 
	C826.435852,378.802490 823.498962,367.459290 820.603210,356.275330 
	C812.457642,356.275330 804.866638,356.275330 796.804932,356.275330 
	C804.028076,376.041473 811.128479,395.471588 818.192505,414.802277 
	C825.614197,414.802277 832.724121,414.802277 839.904358,414.802277 
	C842.968018,404.132904 845.983765,393.630676 848.999451,383.128418 
	C849.284058,383.184601 849.568726,383.240784 849.853333,383.296967 
	C852.811584,393.810577 855.769836,404.324158 858.712585,414.782623 
	C866.203308,414.782623 873.314819,414.782623 880.479980,414.782623 
	C887.651428,395.213257 894.757202,375.823181 901.921387,356.273682 
	C894.374207,356.273682 887.408569,356.273682 880.453491,356.273682 
	C877.372131,367.665100 874.343262,378.862640 870.470520,390.160492 
M569.420105,365.061493 
	C569.270630,372.021210 568.342468,379.071533 569.139160,385.921204 
	C570.646423,398.881012 577.140137,408.874878 589.955017,413.324097 
	C601.748718,417.418823 613.860168,417.665863 625.669739,413.328735 
	C638.652771,408.560638 645.012207,398.499817 644.653625,384.166504 
	C637.233582,384.166504 629.806824,384.166504 622.407532,384.166504 
	C620.987915,393.650787 617.099976,397.545837 608.845886,397.912750 
	C601.136597,398.255463 595.406433,394.596893 594.413940,387.118042 
	C593.504578,380.265747 593.513428,373.116058 594.367249,366.252869 
	C595.290344,358.833069 601.276367,354.930420 608.774414,355.380066 
	C615.995483,355.813171 620.085693,359.738251 621.177612,367.268036 
	C621.291321,368.052307 621.465820,368.827789 621.621582,369.657715 
	C629.503845,369.657715 637.089478,369.657715 644.665161,369.657715 
	C645.035583,355.695709 638.650635,345.358276 626.287476,340.331116 
	C615.915466,336.113647 605.204773,336.092438 594.411316,338.657806 
	C580.698608,341.917084 572.529602,350.510315 569.420105,365.061493 
M693.136719,236.178543 
	C694.853760,244.328049 697.661682,252.036850 704.705078,257.059845 
	C719.443176,267.570251 735.534241,267.497345 751.737244,261.462921 
	C763.198730,257.194366 769.548218,245.621658 768.462708,233.222046 
	C761.046753,233.222046 753.631104,233.222046 746.254639,233.222046 
	C745.182678,242.655899 740.756165,246.865341 732.103943,246.935593 
	C723.827637,247.002808 718.646362,242.350571 717.943665,233.422302 
	C717.502014,227.809525 717.508728,222.079163 718.107971,216.486603 
	C718.948608,208.640305 724.300903,204.314728 732.016235,204.344681 
	C739.559265,204.373962 744.013123,208.492203 745.209167,216.504608 
	C745.324402,217.276443 745.617493,218.021729 745.770081,218.570801 
	C753.674194,218.570801 761.248108,218.570801 768.891357,218.570801 
	C768.693054,205.954300 764.166260,195.896042 752.781860,190.489197 
	C739.328674,184.099869 725.363953,184.359528 711.622253,189.981857 
	C702.144348,193.859711 696.120667,201.285889 694.328186,211.077911 
	C692.882324,218.976532 693.377319,227.230423 693.136719,236.178543 
M601.834900,221.622879 
	C598.714661,211.294128 595.670532,200.941025 592.382446,190.666000 
	C591.947327,189.306229 590.304932,187.394272 589.161011,187.351273 
	C581.372498,187.058517 573.567749,187.198059 565.129944,187.198059 
	C574.308472,213.106476 583.313904,238.526520 592.306396,263.910065 
	C602.008118,263.910065 611.321045,263.910065 620.938538,263.910065 
	C629.911499,238.480179 638.894836,213.020859 648.007385,187.195511 
	C640.264160,187.195511 633.104187,187.032379 625.964111,187.336121 
	C624.572388,187.395340 622.577820,188.997253 622.034729,190.356476 
	C620.377686,194.503708 619.288574,198.878357 617.987000,203.167114 
	C614.513794,214.611588 611.045044,226.057419 607.574524,237.502731 
	C607.241089,237.488770 606.907654,237.474823 606.574219,237.460876 
	C605.051392,232.445465 603.528564,227.430054 601.834900,221.622879 
M968.238220,352.500580 
	C968.238220,346.428986 968.238220,340.357361 968.238220,334.433838 
	C960.414246,334.433838 953.350159,334.433838 946.002380,334.433838 
	C946.002380,343.351898 946.002380,351.933258 946.002380,361.309753 
	C944.732971,360.276001 944.056274,359.659119 943.315735,359.131744 
	C930.473877,349.985962 911.899048,355.230591 907.395813,370.214844 
	C905.172424,377.613159 905.022522,385.970734 905.569641,393.779694 
	C906.239014,403.335938 910.617065,411.593781 920.552124,414.775757 
	C930.815857,418.063019 940.237427,416.434570 947.699036,407.867767 
	C947.810608,407.739655 948.298889,407.939667 948.613037,407.994080 
	C949.160645,410.224701 949.708252,412.455292 950.259949,414.702454 
	C956.279358,414.702454 962.191833,414.702454 968.238220,414.702454 
	C968.238220,394.101074 968.238220,373.800781 968.238220,352.500580 
M802.198608,263.898529 
	C802.444214,262.326813 802.890442,260.756653 802.902771,259.183167 
	C802.980774,249.197647 802.823730,239.208481 803.032837,229.226562 
	C803.144470,223.893707 806.878357,220.372070 811.851074,220.213715 
	C816.184021,220.075729 818.937500,222.895020 819.518005,228.235855 
	C819.714905,230.047241 819.655945,231.889954 819.658081,233.718399 
	C819.669495,243.683426 819.663513,253.648438 819.663513,263.677612 
	C827.231567,263.677612 834.437866,263.677612 841.321533,263.677612 
	C841.321533,249.069626 842.018738,234.745331 841.098267,220.525772 
	C840.377380,209.390167 833.100769,204.084381 821.866394,203.871994 
	C814.819458,203.738785 808.792786,206.364136 802.698975,211.053329 
	C802.698975,201.201004 802.698975,192.283508 802.698975,183.371735 
	C795.228088,183.371735 788.151794,183.371735 781.057739,183.371735 
	C781.057739,210.344009 781.057739,237.037354 781.057739,263.996552 
	C787.975281,263.996552 794.608704,263.996552 802.198608,263.898529 
M678.935364,408.407684 
	C678.956299,398.908386 678.809998,389.404602 679.064514,379.911560 
	C679.203979,374.709106 683.289673,371.134064 688.186218,371.201599 
	C692.441895,371.260254 695.156372,374.181519 695.553955,379.584381 
	C695.810120,383.066132 695.656555,386.579102 695.660522,390.078125 
	C695.669861,398.328796 695.663513,406.579498 695.663513,414.703186 
	C703.417664,414.703186 710.509094,414.703186 717.125854,414.703186 
	C717.125854,399.779358 717.774048,385.121918 716.899963,370.555847 
	C716.308289,360.696106 709.207275,355.527985 699.340149,354.918762 
	C691.749329,354.450073 685.234009,357.041992 678.660828,362.043945 
	C678.660828,352.142487 678.660828,343.219635 678.660828,334.408508 
	C671.150635,334.408508 664.062866,334.408508 656.950317,334.408508 
	C656.950317,361.337708 656.950317,387.951843 656.950317,414.667725 
	C664.343628,414.667725 671.551880,414.667725 678.935425,414.667725 
	C678.935425,412.681732 678.935425,411.030945 678.935364,408.407684 
M1292.960327,264.783417 
	C1298.791626,263.092133 1299.552002,260.630127 1297.403198,250.398132 
	C1290.757202,249.888474 1290.549316,249.657303 1290.472412,243.005402 
	C1290.387695,235.678879 1290.346924,228.351059 1290.170654,221.026627 
	C1290.028687,215.124344 1287.002075,210.632782 1281.841064,208.366852 
	C1267.445190,202.046371 1252.740723,201.831558 1238.329102,208.257507 
	C1232.313110,210.939941 1229.049927,216.039078 1229.421753,223.285065 
	C1236.562622,223.285065 1243.515381,223.285065 1250.588013,223.285065 
	C1253.622192,218.471710 1257.818970,216.793625 1263.046753,218.461578 
	C1267.555908,219.900223 1268.677856,223.199829 1267.901001,228.089233 
	C1264.684814,228.089233 1261.326416,227.681000 1258.105713,228.173569 
	C1251.241699,229.223328 1244.154175,229.928162 1237.701294,232.270233 
	C1229.482910,235.253113 1226.250122,243.442825 1228.019287,253.009903 
	C1229.275513,259.803284 1234.858643,264.214417 1243.283569,265.009827 
	C1252.854614,265.913483 1261.831421,264.374451 1269.087036,258.670929 
	C1272.384277,260.630798 1275.113770,263.169800 1278.264526,263.905731 
	C1282.701416,264.942017 1287.450195,264.641815 1292.960327,264.783417 
M1066.352173,208.019638 
	C1052.143311,202.301758 1037.850220,201.945114 1023.744690,208.060791 
	C1017.498840,210.768814 1014.076721,215.847916 1014.418945,223.293076 
	C1021.567078,223.293076 1028.515137,223.293076 1035.578613,223.293076 
	C1038.706299,218.344467 1043.222412,216.663956 1048.489624,218.640945 
	C1052.883057,220.289917 1053.695435,223.566238 1052.811768,228.105728 
	C1049.268921,228.105728 1045.894409,227.706482 1042.651367,228.189743 
	C1036.116577,229.163544 1029.381104,229.856201 1023.226440,232.057236 
	C1014.618225,235.135742 1011.250305,243.062820 1013.006897,252.915024 
	C1014.248596,259.879150 1019.979858,264.301697 1028.662354,265.046997 
	C1038.201172,265.865814 1047.113647,264.190216 1054.958252,258.034760 
	C1059.108398,264.169556 1065.080444,265.176239 1071.405884,265.207886 
	C1082.674194,265.264313 1083.139771,264.786102 1083.027832,253.803787 
	C1083.016357,252.684814 1082.860474,251.567337 1082.776001,250.504166 
	C1075.670288,249.823196 1075.502197,249.649475 1075.478638,242.621597 
	C1075.458008,236.463455 1075.453125,230.305130 1075.475464,224.147003 
	C1075.500244,217.348480 1073.248901,211.786575 1066.352173,208.019638 
M914.221802,221.332565 
	C914.043640,215.457397 911.270081,210.843979 906.103455,208.520416 
	C891.392822,201.904724 876.383789,201.731583 861.727112,208.601334 
	C855.985840,211.292343 852.936646,216.377625 853.508484,223.562302 
	C860.066345,223.562302 866.373169,223.646011 872.673218,223.477722 
	C873.690857,223.450531 874.944946,222.511826 875.633057,221.635757 
	C878.349854,218.176514 883.185608,216.943375 887.699158,218.721588 
	C891.916931,220.383270 892.617249,223.632736 891.847046,228.096680 
	C888.512024,228.096680 885.139282,227.693039 881.900818,228.180908 
	C875.196655,229.190857 868.284912,229.895660 861.970764,232.156525 
	C853.622803,235.145599 850.374695,242.973221 851.981689,252.721451 
	C853.140930,259.753418 858.816895,264.240356 867.493225,265.034424 
	C877.062012,265.910187 885.988037,264.230469 893.883057,258.104950 
	C899.491333,265.768402 907.377991,265.533081 915.281128,264.933563 
	C921.794312,264.439484 922.037720,264.025269 922.038269,257.392059 
	C922.038452,255.104874 922.038330,252.817688 922.038330,250.596405 
	C914.561218,249.756104 914.507385,249.679840 914.471497,242.190994 
	C914.439575,235.527451 914.380615,228.864029 914.221802,221.332565 
M1004.929749,370.164581 
	C1014.470703,367.123627 1019.448059,370.121918 1018.849915,379.075470 
	C1015.750061,379.075470 1012.556641,378.703339 1009.483032,379.151794 
	C1002.781250,380.129608 995.875793,380.756012 989.538635,382.936066 
	C980.747070,385.960480 977.403137,393.517334 978.962585,403.575439 
	C980.079468,410.779236 985.889465,415.320801 994.814636,416.061432 
	C1004.219788,416.841888 1012.990417,415.221405 1020.736572,409.168945 
	C1027.698975,417.580658 1036.718384,416.970490 1045.908569,415.083832 
	C1047.101562,414.838898 1048.773438,413.247131 1048.893433,412.135590 
	C1049.277466,408.577911 1049.036133,404.952698 1049.036133,401.414734 
	C1041.768066,400.909912 1041.520874,400.664764 1041.479858,393.982727 
	C1041.438965,387.326965 1041.471802,380.670654 1041.413208,374.015076 
	C1041.341553,365.882843 1037.271362,360.556244 1029.702026,357.919678 
	C1017.356995,353.619629 1004.869751,353.529388 992.556824,357.755249 
	C983.989075,360.695770 980.493164,365.915710 980.577454,374.563202 
	C985.646240,374.563202 990.767639,374.285309 995.841919,374.654388 
	C999.646973,374.931122 1002.543274,374.234192 1004.929749,370.164581 
M1194.054810,243.305954 
	C1193.949707,243.434845 1193.860596,243.583786 1193.733643,243.685547 
	C1193.651001,243.751862 1193.417236,243.783340 1193.413818,243.773254 
	C1192.596069,241.450241 1191.697998,239.149963 1191.005249,236.789413 
	C1187.898315,226.202835 1184.849731,215.599060 1181.870728,205.314453 
	C1173.623169,205.314453 1166.062866,205.314453 1158.065186,205.314453 
	C1165.440674,223.838409 1172.679443,241.994186 1179.896606,260.158539 
	C1182.400391,266.459991 1179.339966,271.453644 1172.547363,271.949310 
	C1169.416260,272.177795 1166.254639,271.988251 1162.613159,271.988251 
	C1162.613159,275.467438 1162.798706,278.612305 1162.558716,281.724365 
	C1162.337524,284.590576 1163.330444,285.637939 1166.194580,286.360596 
	C1181.545166,290.234009 1193.859009,285.369781 1200.891479,271.270813 
	C1205.091675,262.850220 1208.120850,253.830109 1211.450317,244.994293 
	C1216.407227,231.839661 1221.164551,218.609741 1226.045532,205.306076 
	C1218.480713,205.306076 1211.377075,205.306076 1204.261108,205.306076 
	C1200.894043,217.864777 1197.585693,230.205093 1194.054810,243.305954 
M1129.251343,247.497498 
	C1129.251343,252.936752 1129.251343,258.376007 1129.251343,263.767456 
	C1136.996216,263.767456 1144.097168,263.767456 1151.054443,263.767456 
	C1151.054443,249.065750 1151.551636,234.588531 1150.881958,220.165512 
	C1150.425293,210.329941 1143.142212,204.500626 1133.240112,203.940262 
	C1124.205200,203.428986 1116.750244,206.687439 1110.234985,213.636093 
	C1109.583374,210.486755 1109.062988,207.972504 1108.525269,205.373718 
	C1102.515381,205.373718 1096.624023,205.373718 1090.733398,205.373718 
	C1090.733398,225.068848 1090.733398,244.446594 1090.733398,263.722534 
	C1098.196655,263.722534 1105.288818,263.722534 1112.725220,263.722534 
	C1112.725220,258.803925 1112.706421,254.167740 1112.729614,249.531738 
	C1112.764648,242.535431 1112.621460,235.529449 1112.950928,228.546310 
	C1113.187134,223.535904 1117.056641,220.218521 1121.827759,220.218811 
	C1126.230225,220.219055 1128.998291,223.161194 1129.162964,228.504013 
	C1129.347778,234.497330 1129.234741,240.499817 1129.251343,247.497498 
M746.800293,357.121887 
	C732.845703,363.365570 727.749268,372.452179 728.857666,389.112488 
	C729.797668,403.241180 737.359863,412.305573 751.293457,414.997742 
	C756.600708,416.023224 762.200928,416.188477 767.616089,415.869873 
	C780.989868,415.082886 790.965271,406.725616 793.846619,394.559418 
	C797.269958,380.105011 792.709717,366.152161 781.834167,359.817657 
	C771.005554,353.510437 759.344177,353.721497 746.800293,357.121887 
M1001.462769,250.191528 
	C997.812256,250.282242 993.812683,250.164108 993.598328,245.446732 
	C993.217590,237.069946 993.491455,228.663422 993.491455,219.805130 
	C997.799988,219.805130 1001.699158,219.805130 1005.539062,219.805130 
	C1005.539062,214.727539 1005.539062,210.130402 1005.539062,205.095490 
	C1001.400696,205.095490 997.491516,205.095490 993.052124,205.095490 
	C993.052124,198.950592 993.052124,193.228668 993.052124,187.197250 
	C988.224365,187.197250 983.909119,186.976730 979.641479,187.330429 
	C978.345764,187.437805 976.500916,188.898605 976.077026,190.139099 
	C974.427612,194.966492 973.248047,199.954468 971.823547,205.137848 
	C968.836426,205.137848 966.062866,205.137848 963.201477,205.137848 
	C963.201477,210.337875 963.201477,215.192215 963.201477,220.408264 
	C965.991638,220.408264 968.408691,220.408264 971.011353,220.408264 
	C971.011353,230.421921 970.905823,240.063202 971.042908,249.701050 
	C971.164612,258.252502 974.619263,262.656891 983.015137,264.353210 
	C987.031372,265.164642 991.282410,265.182556 995.406067,265.021057 
	C1005.942078,264.608246 1006.071106,264.343506 1005.780396,253.962540 
	C1005.771118,253.630005 1005.920593,253.136627 1005.755188,252.990189 
	C1004.655273,252.016266 1003.489807,251.116470 1001.462769,250.191528 
M1062.596924,415.008606 
	C1067.719360,415.008606 1072.841797,415.008606 1078.317627,415.008606 
	C1078.317627,413.327057 1078.308960,412.017822 1078.319214,410.708740 
	C1078.381104,402.726746 1078.098389,394.722412 1078.606445,386.768738 
	C1079.157715,378.138489 1082.764526,375.059845 1091.317261,374.765717 
	C1093.587891,374.687592 1095.863647,374.753937 1098.624146,374.753937 
	C1098.624146,369.237915 1098.462036,364.277588 1098.684082,359.334564 
	C1098.820679,356.291656 1097.578003,355.264587 1094.729858,354.972656 
	C1086.773315,354.157104 1080.478638,356.719391 1075.961182,364.322723 
	C1075.236328,361.109192 1074.674072,358.615753 1074.165649,356.361938 
	C1067.936768,356.361938 1062.184326,356.361938 1056.403076,356.361938 
	C1056.403076,376.023041 1056.403076,395.385040 1056.403076,415.008606 
	C1058.338989,415.008606 1059.983276,415.008606 1062.596924,415.008606 
M1120.442627,415.017914 
	C1123.061279,415.017914 1125.680054,415.017914 1128.527466,415.017914 
	C1128.527466,395.241333 1128.527466,375.892059 1128.527466,356.385620 
	C1121.105713,356.385620 1113.928467,356.385620 1106.715576,356.385620 
	C1106.715576,376.078552 1106.715576,395.437927 1106.715576,415.017914 
	C1111.168091,415.017914 1115.315186,415.017914 1120.442627,415.017914 
M952.305542,262.949005 
	C952.305542,243.713089 952.305542,224.477173 952.305542,205.418793 
	C944.525696,205.418793 937.444946,205.418793 930.350586,205.418793 
	C930.350586,225.034912 930.350586,244.299393 930.350586,263.769470 
	C937.674988,263.769470 944.786926,263.769470 952.305542,262.949005 
M1125.213623,334.072723 
	C1119.105835,334.072723 1112.997925,334.072723 1106.649292,334.072723 
	C1106.649292,339.281708 1106.649292,344.018280 1106.649292,348.879456 
	C1114.086792,348.879456 1121.317261,348.879456 1128.773193,348.879456 
	C1128.773193,344.776154 1128.963379,340.942688 1128.652954,337.150238 
	C1128.563965,336.063843 1127.026367,335.096100 1125.213623,334.072723 
M943.450073,198.148499 
	C946.346619,198.148499 949.243164,198.148499 952.033691,198.148499 
	C952.033691,192.725052 952.033691,188.007599 952.033691,183.361877 
	C944.645020,183.361877 937.587585,183.361877 930.388062,183.361877 
	C930.388062,188.348892 930.388062,193.059555 930.388062,198.148499 
	C934.580811,198.148499 938.526123,198.148499 943.450073,198.148499 
z"/>
<path fill="#010101" opacity="1.000000" stroke="none" 
	d="
M383.518311,341.508484 
	C396.028168,330.799164 408.274719,320.330231 420.995239,309.456085 
	C395.265442,286.792633 369.697632,264.271881 343.859772,241.513245 
	C348.695404,236.024658 353.480194,230.593796 358.633881,224.744186 
	C390.209900,252.519897 421.813751,280.320099 454.414948,308.997620 
	C447.319885,315.605835 440.722382,322.139130 433.719360,328.204193 
	C406.975800,351.365814 380.102722,374.377869 353.271149,397.437836 
	C352.518951,398.084351 351.689911,398.641449 350.510040,399.532227 
	C345.666046,393.932159 340.853729,388.368744 335.916443,382.660828 
	C351.847778,368.892303 367.551392,355.320587 383.518311,341.508484 
z"/>
<path fill="#010101" opacity="1.000000" stroke="none" 
	d="
M198.009186,276.994568 
	C186.832794,286.641235 175.908554,296.037994 164.815384,305.580078 
	C190.551971,328.240631 216.082077,350.719360 241.949738,373.495331 
	C236.994370,379.106995 232.297226,384.426208 227.150436,390.254639 
	C195.426971,362.343475 163.810074,334.526062 131.136078,305.778595 
	C140.210388,297.656128 148.875565,289.678925 157.776794,281.974487 
	C182.887283,260.240173 208.093948,238.616974 233.268768,216.957016 
	C233.879379,216.431671 234.561111,215.989014 235.304977,215.437073 
	C240.155014,221.105835 244.874939,226.622513 249.860641,232.449844 
	C232.500107,247.352798 215.380722,262.048737 198.009186,276.994568 
z"/>
<path fill="#0F0F0F" opacity="1.000000" stroke="none" 
	d="
M514.556641,500.868408 
	C514.556641,503.477814 514.556641,505.604828 514.556641,507.870026 
	C510.259033,507.870026 506.472870,507.870026 502.408020,507.870026 
	C502.408020,371.798004 502.408020,235.884125 502.408020,99.549637 
	C506.211578,99.549637 510.077423,99.549637 514.556702,99.549637 
	C514.556702,233.171051 514.556702,366.778534 514.556641,500.868408 
z"/>
<path fill="#010101" opacity="1.000000" stroke="none" 
	d="
M277.653870,317.460968 
	C287.904480,277.182281 298.018494,237.294067 308.265778,196.880264 
	C315.354462,198.671005 322.370239,200.443314 330.070099,202.388458 
	C312.517639,271.386566 294.986389,340.301361 277.314301,409.769745 
	C270.063477,407.954010 263.071503,406.203094 255.528488,404.314209 
	C262.905823,375.305603 270.211548,346.578522 277.653870,317.460968 
z"/>
<path fill="#030303" opacity="1.000000" stroke="none" 
	d="
M870.892456,390.110321 
	C874.343262,378.862640 877.372131,367.665100 880.453491,356.273682 
	C887.408569,356.273682 894.374207,356.273682 901.921387,356.273682 
	C894.757202,375.823181 887.651428,395.213257 880.479980,414.782623 
	C873.314819,414.782623 866.203308,414.782623 858.712585,414.782623 
	C855.769836,404.324158 852.811584,393.810577 849.853333,383.296967 
	C849.568726,383.240784 849.284058,383.184601 848.999451,383.128418 
	C845.983765,393.630676 842.968018,404.132904 839.904358,414.802277 
	C832.724121,414.802277 825.614197,414.802277 818.192505,414.802277 
	C811.128479,395.471588 804.028076,376.041473 796.804932,356.275330 
	C804.866638,356.275330 812.457642,356.275330 820.603210,356.275330 
	C823.498962,367.459290 826.435852,378.802490 829.372803,390.145691 
	C829.694031,390.234863 830.015259,390.324036 830.336487,390.413208 
	C833.403870,379.084808 836.471191,367.756409 839.578308,356.281281 
	C846.875488,356.281281 853.995300,356.281281 861.609985,356.281281 
	C864.539978,367.484528 867.505249,378.822510 870.892456,390.110321 
z"/>
<path fill="#030303" opacity="1.000000" stroke="none" 
	d="
M569.562378,364.664032 
	C572.529602,350.510315 580.698608,341.917084 594.411316,338.657806 
	C605.204773,336.092438 615.915466,336.113647 626.287476,340.331116 
	C638.650635,345.358276 645.035583,355.695709 644.665161,369.657715 
	C637.089478,369.657715 629.503845,369.657715 621.621582,369.657715 
	C621.465820,368.827789 621.291321,368.052307 621.177612,367.268036 
	C620.085693,359.738251 615.995483,355.813171 608.774414,355.380066 
	C601.276367,354.930420 595.290344,358.833069 594.367249,366.252869 
	C593.513428,373.116058 593.504578,380.265747 594.413940,387.118042 
	C595.406433,394.596893 601.136597,398.255463 608.845886,397.912750 
	C617.099976,397.545837 620.987915,393.650787 622.407532,384.166504 
	C629.806824,384.166504 637.233582,384.166504 644.653625,384.166504 
	C645.012207,398.499817 638.652771,408.560638 625.669739,413.328735 
	C613.860168,417.665863 601.748718,417.418823 589.955017,413.324097 
	C577.140137,408.874878 570.646423,398.881012 569.139160,385.921204 
	C568.342468,379.071533 569.270630,372.021210 569.562378,364.664032 
z"/>
<path fill="#030303" opacity="1.000000" stroke="none" 
	d="
M693.073975,235.752625 
	C693.377319,227.230423 692.882324,218.976532 694.328186,211.077911 
	C696.120667,201.285889 702.144348,193.859711 711.622253,189.981857 
	C725.363953,184.359528 739.328674,184.099869 752.781860,190.489197 
	C764.166260,195.896042 768.693054,205.954300 768.891357,218.570801 
	C761.248108,218.570801 753.674194,218.570801 745.770081,218.570801 
	C745.617493,218.021729 745.324402,217.276443 745.209167,216.504608 
	C744.013123,208.492203 739.559265,204.373962 732.016235,204.344681 
	C724.300903,204.314728 718.948608,208.640305 718.107971,216.486603 
	C717.508728,222.079163 717.502014,227.809525 717.943665,233.422302 
	C718.646362,242.350571 723.827637,247.002808 732.103943,246.935593 
	C740.756165,246.865341 745.182678,242.655899 746.254639,233.222046 
	C753.631104,233.222046 761.046753,233.222046 768.462708,233.222046 
	C769.548218,245.621658 763.198730,257.194366 751.737244,261.462921 
	C735.534241,267.497345 719.443176,267.570251 704.705078,257.059845 
	C697.661682,252.036850 694.853760,244.328049 693.073975,235.752625 
z"/>
<path fill="#040404" opacity="1.000000" stroke="none" 
	d="
M601.920288,222.018768 
	C603.528564,227.430054 605.051392,232.445465 606.574219,237.460876 
	C606.907654,237.474823 607.241089,237.488770 607.574524,237.502731 
	C611.045044,226.057419 614.513794,214.611588 617.987000,203.167114 
	C619.288574,198.878357 620.377686,194.503708 622.034729,190.356476 
	C622.577820,188.997253 624.572388,187.395340 625.964111,187.336121 
	C633.104187,187.032379 640.264160,187.195511 648.007385,187.195511 
	C638.894836,213.020859 629.911499,238.480179 620.938538,263.910065 
	C611.321045,263.910065 602.008118,263.910065 592.306396,263.910065 
	C583.313904,238.526520 574.308472,213.106476 565.129944,187.198059 
	C573.567749,187.198059 581.372498,187.058517 589.161011,187.351273 
	C590.304932,187.394272 591.947327,189.306229 592.382446,190.666000 
	C595.670532,200.941025 598.714661,211.294128 601.920288,222.018768 
z"/>
<path fill="#020202" opacity="1.000000" stroke="none" 
	d="
M968.238220,353.000549 
	C968.238220,373.800781 968.238220,394.101074 968.238220,414.702454 
	C962.191833,414.702454 956.279358,414.702454 950.259949,414.702454 
	C949.708252,412.455292 949.160645,410.224701 948.612183,407.990295 
	C948.298889,407.939667 947.810608,407.739655 947.699036,407.867767 
	C940.237427,416.434570 930.815857,418.063019 920.552124,414.775757 
	C910.617065,411.593781 906.239014,403.335938 905.569641,393.779694 
	C905.022522,385.970734 905.172424,377.613159 907.395813,370.214844 
	C911.899048,355.230591 930.473877,349.985962 943.315735,359.131744 
	C944.056274,359.659119 944.732971,360.276001 946.002380,361.309753 
	C946.002380,351.933258 946.002380,343.351898 946.002380,334.433838 
	C953.350159,334.433838 960.414246,334.433838 968.238220,334.433838 
	C968.238220,340.357361 968.238220,346.428986 968.238220,353.000549 
M946.094360,389.127350 
	C946.048279,386.138123 946.290405,383.110596 945.899048,380.167267 
	C944.950195,373.030548 939.442688,369.412354 933.030151,371.929535 
	C925.758301,374.784027 927.058716,381.471466 927.013306,387.306366 
	C926.955078,394.796844 928.798645,397.980560 933.472839,399.385132 
	C940.197876,401.405975 944.552368,398.155945 946.094360,389.127350 
z"/>
<path fill="#020202" opacity="1.000000" stroke="none" 
	d="
M801.720337,263.947540 
	C794.608704,263.996552 787.975281,263.996552 781.057739,263.996552 
	C781.057739,237.037354 781.057739,210.344009 781.057739,183.371735 
	C788.151794,183.371735 795.228088,183.371735 802.698975,183.371735 
	C802.698975,192.283508 802.698975,201.201004 802.698975,211.053329 
	C808.792786,206.364136 814.819458,203.738785 821.866394,203.871994 
	C833.100769,204.084381 840.377380,209.390167 841.098267,220.525772 
	C842.018738,234.745331 841.321533,249.069626 841.321533,263.677612 
	C834.437866,263.677612 827.231567,263.677612 819.663513,263.677612 
	C819.663513,253.648438 819.669495,243.683426 819.658081,233.718399 
	C819.655945,231.889954 819.714905,230.047241 819.518005,228.235855 
	C818.937500,222.895020 816.184021,220.075729 811.851074,220.213715 
	C806.878357,220.372070 803.144470,223.893707 803.032837,229.226562 
	C802.823730,239.208481 802.980774,249.197647 802.902771,259.183167 
	C802.890442,260.756653 802.444214,262.326813 801.720337,263.947540 
z"/>
<path fill="#020202" opacity="1.000000" stroke="none" 
	d="
M678.935425,408.893921 
	C678.935425,411.030945 678.935425,412.681732 678.935425,414.667725 
	C671.551880,414.667725 664.343628,414.667725 656.950317,414.667725 
	C656.950317,387.951843 656.950317,361.337708 656.950317,334.408508 
	C664.062866,334.408508 671.150635,334.408508 678.660828,334.408508 
	C678.660828,343.219635 678.660828,352.142487 678.660828,362.043945 
	C685.234009,357.041992 691.749329,354.450073 699.340149,354.918762 
	C709.207275,355.527985 716.308289,360.696106 716.899963,370.555847 
	C717.774048,385.121918 717.125854,399.779358 717.125854,414.703186 
	C710.509094,414.703186 703.417664,414.703186 695.663513,414.703186 
	C695.663513,406.579498 695.669861,398.328796 695.660522,390.078125 
	C695.656555,386.579102 695.810120,383.066132 695.553955,379.584381 
	C695.156372,374.181519 692.441895,371.260254 688.186218,371.201599 
	C683.289673,371.134064 679.203979,374.709106 679.064514,379.911560 
	C678.809998,389.404602 678.956299,398.908386 678.935425,408.893921 
z"/>
<path fill="#040404" opacity="1.000000" stroke="none" 
	d="
M1292.512939,264.848267 
	C1287.450195,264.641815 1282.701416,264.942017 1278.264526,263.905731 
	C1275.113770,263.169800 1272.384277,260.630798 1269.087036,258.670929 
	C1261.831421,264.374451 1252.854614,265.913483 1243.283569,265.009827 
	C1234.858643,264.214417 1229.275513,259.803284 1228.019287,253.009903 
	C1226.250122,243.442825 1229.482910,235.253113 1237.701294,232.270233 
	C1244.154175,229.928162 1251.241699,229.223328 1258.105713,228.173569 
	C1261.326416,227.681000 1264.684814,228.089233 1267.901001,228.089233 
	C1268.677856,223.199829 1267.555908,219.900223 1263.046753,218.461578 
	C1257.818970,216.793625 1253.622192,218.471710 1250.588013,223.285065 
	C1243.515381,223.285065 1236.562622,223.285065 1229.421753,223.285065 
	C1229.049927,216.039078 1232.313110,210.939941 1238.329102,208.257507 
	C1252.740723,201.831558 1267.445190,202.046371 1281.841064,208.366852 
	C1287.002075,210.632782 1290.028687,215.124344 1290.170654,221.026627 
	C1290.346924,228.351059 1290.387695,235.678879 1290.472412,243.005402 
	C1290.549316,249.657303 1290.757202,249.888474 1297.403198,250.398132 
	C1299.552002,260.630127 1298.791626,263.092133 1292.512939,264.848267 
M1263.921387,249.767487 
	C1268.817261,247.095245 1268.810059,242.962845 1267.490356,237.885941 
	C1263.175171,238.657608 1259.031738,239.080719 1255.088013,240.204788 
	C1251.956055,241.097534 1249.283447,243.104797 1250.033813,247.066772 
	C1250.814453,251.188904 1254.272949,251.342270 1257.414795,251.341919 
	C1259.327271,251.341705 1261.239624,250.520020 1263.921387,249.767487 
z"/>
<path fill="#040404" opacity="1.000000" stroke="none" 
	d="
M1066.689209,208.178024 
	C1073.248901,211.786575 1075.500244,217.348480 1075.475464,224.147003 
	C1075.453125,230.305130 1075.458008,236.463455 1075.478638,242.621597 
	C1075.502197,249.649475 1075.670288,249.823196 1082.776001,250.504166 
	C1082.860474,251.567337 1083.016357,252.684814 1083.027832,253.803787 
	C1083.139771,264.786102 1082.674194,265.264313 1071.405884,265.207886 
	C1065.080444,265.176239 1059.108398,264.169556 1054.958252,258.034760 
	C1047.113647,264.190216 1038.201172,265.865814 1028.662354,265.046997 
	C1019.979858,264.301697 1014.248596,259.879150 1013.006897,252.915024 
	C1011.250305,243.062820 1014.618225,235.135742 1023.226440,232.057236 
	C1029.381104,229.856201 1036.116577,229.163544 1042.651367,228.189743 
	C1045.894409,227.706482 1049.268921,228.105728 1052.811768,228.105728 
	C1053.695435,223.566238 1052.883057,220.289917 1048.489624,218.640945 
	C1043.222412,216.663956 1038.706299,218.344467 1035.578613,223.293076 
	C1028.515137,223.293076 1021.567078,223.293076 1014.418945,223.293076 
	C1014.076721,215.847916 1017.498840,210.768814 1023.744690,208.060791 
	C1037.850220,201.945114 1052.143311,202.301758 1066.689209,208.178024 
M1045.486572,238.890259 
	C1042.835327,239.741577 1039.877808,240.130356 1037.643188,241.610550 
	C1036.208496,242.560822 1034.954712,245.274536 1035.243896,246.910675 
	C1035.523682,248.493454 1037.670288,250.494705 1039.364746,250.953506 
	C1048.203003,253.346558 1054.245483,247.611755 1052.582520,238.288010 
	C1050.526367,238.461807 1048.426758,238.639267 1045.486572,238.890259 
z"/>
<path fill="#040404" opacity="1.000000" stroke="none" 
	d="
M914.277710,221.766571 
	C914.380615,228.864029 914.439575,235.527451 914.471497,242.190994 
	C914.507385,249.679840 914.561218,249.756104 922.038330,250.596405 
	C922.038330,252.817688 922.038452,255.104874 922.038269,257.392059 
	C922.037720,264.025269 921.794312,264.439484 915.281128,264.933563 
	C907.377991,265.533081 899.491333,265.768402 893.883057,258.104950 
	C885.988037,264.230469 877.062012,265.910187 867.493225,265.034424 
	C858.816895,264.240356 853.140930,259.753418 851.981689,252.721451 
	C850.374695,242.973221 853.622803,235.145599 861.970764,232.156525 
	C868.284912,229.895660 875.196655,229.190857 881.900818,228.180908 
	C885.139282,227.693039 888.512024,228.096680 891.847046,228.096680 
	C892.617249,223.632736 891.916931,220.383270 887.699158,218.721588 
	C883.185608,216.943375 878.349854,218.176514 875.633057,221.635757 
	C874.944946,222.511826 873.690857,223.450531 872.673218,223.477722 
	C866.373169,223.646011 860.066345,223.562302 853.508484,223.562302 
	C852.936646,216.377625 855.985840,211.292343 861.727112,208.601334 
	C876.383789,201.731583 891.392822,201.904724 906.103455,208.520416 
	C911.270081,210.843979 914.043640,215.457397 914.277710,221.766571 
M889.924133,248.380035 
	C892.950928,245.421585 892.590698,241.980637 891.407959,237.549973 
	C886.390015,238.808777 881.481934,239.625565 876.955627,241.410629 
	C875.462952,241.999268 873.961731,245.279007 874.285767,246.981674 
	C874.596252,248.612671 877.265137,250.929596 878.906799,250.937180 
	C882.368225,250.953186 885.835754,249.656357 889.924133,248.380035 
z"/>
<path fill="#040404" opacity="1.000000" stroke="none" 
	d="
M1004.597900,370.387451 
	C1002.543274,374.234192 999.646973,374.931122 995.841919,374.654388 
	C990.767639,374.285309 985.646240,374.563202 980.577454,374.563202 
	C980.493164,365.915710 983.989075,360.695770 992.556824,357.755249 
	C1004.869751,353.529388 1017.356995,353.619629 1029.702026,357.919678 
	C1037.271362,360.556244 1041.341553,365.882843 1041.413208,374.015076 
	C1041.471802,380.670654 1041.438965,387.326965 1041.479858,393.982727 
	C1041.520874,400.664764 1041.768066,400.909912 1049.036133,401.414734 
	C1049.036133,404.952698 1049.277466,408.577911 1048.893433,412.135590 
	C1048.773438,413.247131 1047.101562,414.838898 1045.908569,415.083832 
	C1036.718384,416.970490 1027.698975,417.580658 1020.736572,409.168945 
	C1012.990417,415.221405 1004.219788,416.841888 994.814636,416.061432 
	C985.889465,415.320801 980.079468,410.779236 978.962585,403.575439 
	C977.403137,393.517334 980.747070,385.960480 989.538635,382.936066 
	C995.875793,380.756012 1002.781250,380.129608 1009.483032,379.151794 
	C1012.556641,378.703339 1015.750061,379.075470 1018.849915,379.075470 
	C1019.448059,370.121918 1014.470703,367.123627 1004.597900,370.387451 
M1000.922974,396.675201 
	C1002.014526,401.819519 1005.624451,403.551819 1011.969238,401.975922 
	C1018.171509,400.435425 1020.229736,396.496399 1018.408020,389.266937 
	C1016.330261,389.454559 1014.195007,389.567047 1012.083618,389.854736 
	C1007.640259,390.460083 1003.057861,390.879333 1000.922974,396.675201 
z"/>
<path fill="#040404" opacity="1.000000" stroke="none" 
	d="
M1194.166016,242.925690 
	C1197.585693,230.205093 1200.894043,217.864777 1204.261108,205.306076 
	C1211.377075,205.306076 1218.480713,205.306076 1226.045532,205.306076 
	C1221.164551,218.609741 1216.407227,231.839661 1211.450317,244.994293 
	C1208.120850,253.830109 1205.091675,262.850220 1200.891479,271.270813 
	C1193.859009,285.369781 1181.545166,290.234009 1166.194580,286.360596 
	C1163.330444,285.637939 1162.337524,284.590576 1162.558716,281.724365 
	C1162.798706,278.612305 1162.613159,275.467438 1162.613159,271.988251 
	C1166.254639,271.988251 1169.416260,272.177795 1172.547363,271.949310 
	C1179.339966,271.453644 1182.400391,266.459991 1179.896606,260.158539 
	C1172.679443,241.994186 1165.440674,223.838409 1158.065186,205.314453 
	C1166.062866,205.314453 1173.623169,205.314453 1181.870728,205.314453 
	C1184.849731,215.599060 1187.898315,226.202835 1191.005249,236.789413 
	C1191.697998,239.149963 1192.596069,241.450241 1193.413818,243.773254 
	C1193.417236,243.783340 1193.651001,243.751862 1193.733643,243.685547 
	C1193.860596,243.583786 1193.949707,243.434845 1194.166016,242.925690 
z"/>
<path fill="#070707" opacity="1.000000" stroke="none" 
	d="
M1129.251343,246.997910 
	C1129.234741,240.499817 1129.347778,234.497330 1129.162964,228.504013 
	C1128.998291,223.161194 1126.230225,220.219055 1121.827759,220.218811 
	C1117.056641,220.218521 1113.187134,223.535904 1112.950928,228.546310 
	C1112.621460,235.529449 1112.764648,242.535431 1112.729614,249.531738 
	C1112.706421,254.167740 1112.725220,258.803925 1112.725220,263.722534 
	C1105.288818,263.722534 1098.196655,263.722534 1090.733398,263.722534 
	C1090.733398,244.446594 1090.733398,225.068848 1090.733398,205.373718 
	C1096.624023,205.373718 1102.515381,205.373718 1108.525269,205.373718 
	C1109.062988,207.972504 1109.583374,210.486755 1110.234985,213.636093 
	C1116.750244,206.687439 1124.205200,203.428986 1133.240112,203.940262 
	C1143.142212,204.500626 1150.425293,210.329941 1150.881958,220.165512 
	C1151.551636,234.588531 1151.054443,249.065750 1151.054443,263.767456 
	C1144.097168,263.767456 1136.996216,263.767456 1129.251343,263.767456 
	C1129.251343,258.376007 1129.251343,252.936752 1129.251343,246.997910 
z"/>
<path fill="#030303" opacity="1.000000" stroke="none" 
	d="
M747.182800,357.013794 
	C759.344177,353.721497 771.005554,353.510437 781.834167,359.817657 
	C792.709717,366.152161 797.269958,380.105011 793.846619,394.559418 
	C790.965271,406.725616 780.989868,415.082886 767.616089,415.869873 
	C762.200928,416.188477 756.600708,416.023224 751.293457,414.997742 
	C737.359863,412.305573 729.797668,403.241180 728.857666,389.112488 
	C727.749268,372.452179 732.845703,363.365570 747.182800,357.013794 
M751.953613,375.883087 
	C751.726196,381.819214 750.901001,387.811493 751.451965,393.674469 
	C751.932007,398.782471 756.453613,401.309082 762.241699,401.102356 
	C767.700806,400.907440 771.391846,398.170197 771.983032,393.028564 
	C772.490845,388.611786 772.342957,384.096344 772.197693,379.633911 
	C772.039795,374.783386 769.587891,371.471924 764.740112,370.291473 
	C759.404663,368.992279 755.416748,370.589508 751.953613,375.883087 
z"/>
<path fill="#030303" opacity="1.000000" stroke="none" 
	d="
M1001.904175,250.192047 
	C1003.489807,251.116470 1004.655273,252.016266 1005.755188,252.990189 
	C1005.920593,253.136627 1005.771118,253.630005 1005.780396,253.962540 
	C1006.071106,264.343506 1005.942078,264.608246 995.406067,265.021057 
	C991.282410,265.182556 987.031372,265.164642 983.015137,264.353210 
	C974.619263,262.656891 971.164612,258.252502 971.042908,249.701050 
	C970.905823,240.063202 971.011353,230.421921 971.011353,220.408264 
	C968.408691,220.408264 965.991638,220.408264 963.201477,220.408264 
	C963.201477,215.192215 963.201477,210.337875 963.201477,205.137848 
	C966.062866,205.137848 968.836426,205.137848 971.823547,205.137848 
	C973.248047,199.954468 974.427612,194.966492 976.077026,190.139099 
	C976.500916,188.898605 978.345764,187.437805 979.641479,187.330429 
	C983.909119,186.976730 988.224365,187.197250 993.052124,187.197250 
	C993.052124,193.228668 993.052124,198.950592 993.052124,205.095490 
	C997.491516,205.095490 1001.400696,205.095490 1005.539062,205.095490 
	C1005.539062,210.130402 1005.539062,214.727539 1005.539062,219.805130 
	C1001.699158,219.805130 997.799988,219.805130 993.491455,219.805130 
	C993.491455,228.663422 993.217590,237.069946 993.598328,245.446732 
	C993.812683,250.164108 997.812256,250.282242 1001.904175,250.192047 
z"/>
<path fill="#050505" opacity="1.000000" stroke="none" 
	d="
M1062.112305,415.008606 
	C1059.983276,415.008606 1058.338989,415.008606 1056.403076,415.008606 
	C1056.403076,395.385040 1056.403076,376.023041 1056.403076,356.361938 
	C1062.184326,356.361938 1067.936768,356.361938 1074.165649,356.361938 
	C1074.674072,358.615753 1075.236328,361.109192 1075.961182,364.322723 
	C1080.478638,356.719391 1086.773315,354.157104 1094.729858,354.972656 
	C1097.578003,355.264587 1098.820679,356.291656 1098.684082,359.334564 
	C1098.462036,364.277588 1098.624146,369.237915 1098.624146,374.753937 
	C1095.863647,374.753937 1093.587891,374.687592 1091.317261,374.765717 
	C1082.764526,375.059845 1079.157715,378.138489 1078.606445,386.768738 
	C1078.098389,394.722412 1078.381104,402.726746 1078.319214,410.708740 
	C1078.308960,412.017822 1078.317627,413.327057 1078.317627,415.008606 
	C1072.841797,415.008606 1067.719360,415.008606 1062.112305,415.008606 
z"/>
<path fill="#090909" opacity="1.000000" stroke="none" 
	d="
M1119.952393,415.017914 
	C1115.315186,415.017914 1111.168091,415.017914 1106.715576,415.017914 
	C1106.715576,395.437927 1106.715576,376.078552 1106.715576,356.385620 
	C1113.928467,356.385620 1121.105713,356.385620 1128.527466,356.385620 
	C1128.527466,375.892059 1128.527466,395.241333 1128.527466,415.017914 
	C1125.680054,415.017914 1123.061279,415.017914 1119.952393,415.017914 
z"/>
<path fill="#030303" opacity="1.000000" stroke="none" 
	d="
M952.102173,263.359253 
	C944.786926,263.769470 937.674988,263.769470 930.350586,263.769470 
	C930.350586,244.299393 930.350586,225.034912 930.350586,205.418793 
	C937.444946,205.418793 944.525696,205.418793 952.305542,205.418793 
	C952.305542,224.477173 952.305542,243.713089 952.102173,263.359253 
z"/>
<path fill="#0B0B0B" opacity="1.000000" stroke="none" 
	d="
M1125.683350,334.073334 
	C1127.026367,335.096100 1128.563965,336.063843 1128.652954,337.150238 
	C1128.963379,340.942688 1128.773193,344.776154 1128.773193,348.879456 
	C1121.317261,348.879456 1114.086792,348.879456 1106.649292,348.879456 
	C1106.649292,344.018280 1106.649292,339.281708 1106.649292,334.072723 
	C1112.997925,334.072723 1119.105835,334.072723 1125.683350,334.073334 
z"/>
<path fill="#050505" opacity="1.000000" stroke="none" 
	d="
M942.960754,198.148499 
	C938.526123,198.148499 934.580811,198.148499 930.388062,198.148499 
	C930.388062,193.059555 930.388062,188.348892 930.388062,183.361877 
	C937.587585,183.361877 944.645020,183.361877 952.033691,183.361877 
	C952.033691,188.007599 952.033691,192.725052 952.033691,198.148499 
	C949.243164,198.148499 946.346619,198.148499 942.960754,198.148499 
z"/>
<path fill="#FAFAFA" opacity="1.000000" stroke="none" 
	d="
M946.061646,389.570496 
	C944.552368,398.155945 940.197876,401.405975 933.472839,399.385132 
	C928.798645,397.980560 926.955078,394.796844 927.013306,387.306366 
	C927.058716,381.471466 925.758301,374.784027 933.030151,371.929535 
	C939.442688,369.412354 944.950195,373.030548 945.899048,380.167267 
	C946.290405,383.110596 946.048279,386.138123 946.061646,389.570496 
z"/>
<path fill="#F8F8F8" opacity="1.000000" stroke="none" 
	d="
M1263.536743,249.917404 
	C1261.239624,250.520020 1259.327271,251.341705 1257.414795,251.341919 
	C1254.272949,251.342270 1250.814453,251.188904 1250.033813,247.066772 
	C1249.283447,243.104797 1251.956055,241.097534 1255.088013,240.204788 
	C1259.031738,239.080719 1263.175171,238.657608 1267.490356,237.885941 
	C1268.810059,242.962845 1268.817261,247.095245 1263.536743,249.917404 
z"/>
<path fill="#F8F8F8" opacity="1.000000" stroke="none" 
	d="
M1045.906860,238.853500 
	C1048.426758,238.639267 1050.526367,238.461807 1052.582520,238.288010 
	C1054.245483,247.611755 1048.203003,253.346558 1039.364746,250.953506 
	C1037.670288,250.494705 1035.523682,248.493454 1035.243896,246.910675 
	C1034.954712,245.274536 1036.208496,242.560822 1037.643188,241.610550 
	C1039.877808,240.130356 1042.835327,239.741577 1045.906860,238.853500 
z"/>
<path fill="#F8F8F8" opacity="1.000000" stroke="none" 
	d="
M889.612427,248.639130 
	C885.835754,249.656357 882.368225,250.953186 878.906799,250.937180 
	C877.265137,250.929596 874.596252,248.612671 874.285767,246.981674 
	C873.961731,245.279007 875.462952,241.999268 876.955627,241.410629 
	C881.481934,239.625565 886.390015,238.808777 891.407959,237.549973 
	C892.590698,241.980637 892.950928,245.421585 889.612427,248.639130 
z"/>
<path fill="#F8F8F8" opacity="1.000000" stroke="none" 
	d="
M1000.957458,396.280212 
	C1003.057861,390.879333 1007.640259,390.460083 1012.083618,389.854736 
	C1014.195007,389.567047 1016.330261,389.454559 1018.408020,389.266937 
	C1020.229736,396.496399 1018.171509,400.435425 1011.969238,401.975922 
	C1005.624451,403.551819 1002.014526,401.819519 1000.957458,396.280212 
z"/>
<path fill="#FBFBFB" opacity="1.000000" stroke="none" 
	d="
M752.109253,375.508362 
	C755.416748,370.589508 759.404663,368.992279 764.740112,370.291473 
	C769.587891,371.471924 772.039795,374.783386 772.197693,379.633911 
	C772.342957,384.096344 772.490845,388.611786 771.983032,393.028564 
	C771.391846,398.170197 767.700806,400.907440 762.241699,401.102356 
	C756.453613,401.309082 751.932007,398.782471 751.451965,393.674469 
	C750.901001,387.811493 751.726196,381.819214 752.109253,375.508362 
z"/>
</svg>